<svg width="187" height="125" viewBox="0 0 187 125" fill="none" xmlns="http://www.w3.org/2000/svg">
<path d="M19.6915 36.11L63.2206 10.9784L106.75 36.1099V86.3731L63.2206 111.505L19.6915 86.373V36.11Z" stroke="#EEEEF7" stroke-width="0.798808"/>
<path d="M34.9108 44.8968L63.2206 28.5521L91.5304 44.8968V77.5861L63.2206 93.9308L34.9108 77.5861V44.8968Z" stroke="#EEEEF7" stroke-width="0.798808"/>
<path d="M40.2201 48.0673L63.3657 29.0062L96.0035 41.8282L98.3405 80.9733L63.3585 101.768L37.6894 74.9322L40.2201 48.0673Z" stroke="#0088F0" stroke-width="1.59762"/>
<path d="M29.8789 42.2267L62.9656 23.952L81.2894 51.2428L93.3524 78.8152H63.33L42.3676 72.9591L29.8789 42.2267Z" stroke="#EF2A82" stroke-width="1.59762"/>
<path d="M53.5891 55.6808L63.2207 50.12L72.8522 55.6808V66.8023L63.2207 72.363L53.5891 66.8023V55.6808Z" stroke="#EEEEF7" stroke-width="0.798808"/>
<path d="M159.281 34.2035H160.349C161.021 34.1932 161.549 34.0164 161.933 33.6729C162.318 33.3294 162.51 32.8655 162.51 32.2811C162.51 30.9688 161.857 30.3126 160.549 30.3126C159.934 30.3126 159.442 30.4895 159.073 30.8432C158.709 31.1918 158.527 31.6557 158.527 32.235H157.105C157.105 31.3481 157.427 30.6125 158.073 30.0281C158.724 29.4386 159.55 29.1438 160.549 29.1438C161.605 29.1438 162.433 29.4232 163.033 29.982C163.633 30.5407 163.933 31.3174 163.933 32.3119C163.933 32.7989 163.774 33.2705 163.456 33.7267C163.143 34.183 162.715 34.5239 162.172 34.7494C162.787 34.9442 163.261 35.2672 163.594 35.7183C163.933 36.1694 164.102 36.7205 164.102 37.3715C164.102 38.3763 163.774 39.1734 163.118 39.7629C162.461 40.3524 161.608 40.6472 160.557 40.6472C159.506 40.6472 158.65 40.3627 157.989 39.7937C157.333 39.2247 157.005 38.4737 157.005 37.5407H158.435C158.435 38.1302 158.627 38.6018 159.011 38.9555C159.396 39.3092 159.911 39.4861 160.557 39.4861C161.244 39.4861 161.769 39.3067 162.133 38.9478C162.497 38.589 162.679 38.0738 162.679 37.4023C162.679 36.7512 162.479 36.2514 162.08 35.9028C161.68 35.5542 161.103 35.3748 160.349 35.3646H159.281V34.2035ZM172.06 36.7333H173.614V37.8944H172.06V40.4934H170.63V37.8944H165.532V37.0562L170.546 29.2976H172.06V36.7333ZM167.147 36.7333H170.63V31.243L170.461 31.5506L167.147 36.7333ZM174.775 31.4507C174.775 30.7791 174.988 30.2255 175.413 29.7897C175.844 29.354 176.395 29.1361 177.066 29.1361C177.748 29.1361 178.299 29.3566 178.719 29.7974C179.145 30.2332 179.358 30.7996 179.358 31.4968V32.0427C179.358 32.7194 179.142 33.273 178.712 33.7037C178.286 34.1291 177.743 34.3419 177.082 34.3419C176.415 34.3419 175.864 34.1291 175.428 33.7037C174.993 33.273 174.775 32.7015 174.775 31.9889V31.4507ZM175.836 32.0427C175.836 32.4426 175.949 32.7732 176.174 33.0347C176.4 33.291 176.702 33.4191 177.082 33.4191C177.446 33.4191 177.738 33.2936 177.958 33.0424C178.184 32.7912 178.297 32.4477 178.297 32.012V31.4507C178.297 31.0508 178.186 30.7202 177.966 30.4587C177.745 30.1973 177.446 30.0666 177.066 30.0666C176.687 30.0666 176.387 30.1973 176.167 30.4587C175.946 30.7202 175.836 31.0611 175.836 31.4814V32.0427ZM180.227 37.7483C180.227 37.0767 180.439 36.5257 180.865 36.0951C181.295 35.6593 181.846 35.4415 182.518 35.4415C183.19 35.4415 183.741 35.6568 184.171 36.0874C184.602 36.518 184.817 37.0896 184.817 37.8021V38.3481C184.817 39.0196 184.602 39.5732 184.171 40.009C183.746 40.4396 183.2 40.6549 182.533 40.6549C181.867 40.6549 181.316 40.4421 180.88 40.0167C180.444 39.5861 180.227 39.0145 180.227 38.3019V37.7483ZM181.288 38.3481C181.288 38.753 181.4 39.0862 181.626 39.3477C181.852 39.604 182.154 39.7322 182.533 39.7322C182.902 39.7322 183.197 39.6066 183.418 39.3554C183.638 39.0991 183.748 38.753 183.748 38.3173V37.7483C183.748 37.3433 183.636 37.0127 183.41 36.7564C183.19 36.5 182.892 36.3719 182.518 36.3719C182.154 36.3719 181.857 36.5 181.626 36.7564C181.4 37.0075 181.288 37.3484 181.288 37.779V38.3481ZM177.405 39.6476L176.597 39.1401L182.064 30.3895L182.872 30.897L177.405 39.6476Z" fill="#EF2A82"/>
<path d="M156.601 51.3312C156.601 50.9591 156.674 50.6244 156.819 50.3272C156.966 50.03 157.17 49.8006 157.43 49.6392C157.692 49.4777 157.99 49.3969 158.325 49.3969C158.842 49.3969 159.26 49.576 159.578 49.934C159.899 50.2921 160.059 50.7683 160.059 51.3628V51.4084C160.059 51.7781 159.988 52.1105 159.845 52.4053C159.704 52.6979 159.502 52.926 159.237 53.0899C158.975 53.2537 158.673 53.3356 158.332 53.3356C157.817 53.3356 157.399 53.1566 157.079 52.7985C156.76 52.4404 156.601 51.9665 156.601 51.3768V51.3312ZM157.254 51.4084C157.254 51.8296 157.351 52.1678 157.545 52.4229C157.742 52.678 158.004 52.8055 158.332 52.8055C158.662 52.8055 158.924 52.6768 159.118 52.4194C159.312 52.1596 159.409 51.7969 159.409 51.3312C159.409 50.9146 159.31 50.5776 159.111 50.3202C158.915 50.0604 158.652 49.9305 158.325 49.9305C158.004 49.9305 157.746 50.0581 157.549 50.3131C157.352 50.5682 157.254 50.9333 157.254 51.4084ZM164.082 51.4084C164.082 51.9864 163.95 52.4521 163.685 52.8055C163.421 53.1589 163.063 53.3356 162.611 53.3356C162.15 53.3356 161.787 53.1893 161.523 52.8968V54.7257H160.873V49.4671H161.467L161.498 49.8884C161.763 49.5608 162.13 49.3969 162.6 49.3969C163.057 49.3969 163.417 49.5689 163.682 49.913C163.948 50.257 164.082 50.7356 164.082 51.3487V51.4084ZM163.432 51.3347C163.432 50.9064 163.341 50.5682 163.159 50.3202C162.976 50.0721 162.726 49.9481 162.407 49.9481C162.014 49.9481 161.719 50.1224 161.523 50.4711V52.286C161.717 52.6323 162.014 52.8055 162.414 52.8055C162.726 52.8055 162.973 52.6827 163.155 52.4369C163.34 52.1889 163.432 51.8214 163.432 51.3347ZM165.791 48.5474V49.4671H166.5V49.9691H165.791V52.3246C165.791 52.4767 165.823 52.5914 165.886 52.6686C165.949 52.7435 166.057 52.7809 166.209 52.7809C166.284 52.7809 166.387 52.7669 166.518 52.7388V53.2654C166.347 53.3122 166.181 53.3356 166.02 53.3356C165.729 53.3356 165.511 53.2478 165.363 53.0723C165.216 52.8968 165.142 52.6476 165.142 52.3246V49.9691H164.45V49.4671H165.142V48.5474H165.791ZM167.968 53.2654H167.318V49.4671H167.968V53.2654ZM167.266 48.4597C167.266 48.3544 167.297 48.2654 167.361 48.1929C167.426 48.1203 167.522 48.0841 167.648 48.0841C167.775 48.0841 167.871 48.1203 167.936 48.1929C168.002 48.2654 168.035 48.3544 168.035 48.4597C168.035 48.565 168.002 48.6527 167.936 48.7229C167.871 48.7931 167.775 48.8283 167.648 48.8283C167.522 48.8283 167.426 48.7931 167.361 48.7229C167.297 48.6527 167.266 48.565 167.266 48.4597ZM168.838 51.3312C168.838 50.9591 168.911 50.6244 169.056 50.3272C169.203 50.03 169.407 49.8006 169.667 49.6392C169.929 49.4777 170.227 49.3969 170.562 49.3969C171.079 49.3969 171.497 49.576 171.815 49.934C172.136 50.2921 172.296 50.7683 172.296 51.3628V51.4084C172.296 51.7781 172.225 52.1105 172.082 52.4053C171.942 52.6979 171.739 52.926 171.475 53.0899C171.213 53.2537 170.911 53.3356 170.569 53.3356C170.054 53.3356 169.636 53.1566 169.316 52.7985C168.998 52.4404 168.838 51.9665 168.838 51.3768V51.3312ZM169.491 51.4084C169.491 51.8296 169.588 52.1678 169.783 52.4229C169.979 52.678 170.241 52.8055 170.569 52.8055C170.899 52.8055 171.161 52.6768 171.355 52.4194C171.55 52.1596 171.647 51.7969 171.647 51.3312C171.647 50.9146 171.547 50.5776 171.348 50.3202C171.152 50.0604 170.89 49.9305 170.562 49.9305C170.241 49.9305 169.983 50.0581 169.786 50.3131C169.59 50.5682 169.491 50.9333 169.491 51.4084ZM173.725 49.4671L173.746 49.9446C174.036 49.5795 174.415 49.3969 174.883 49.3969C175.686 49.3969 176.091 49.8498 176.098 50.7555V53.2654H175.448V50.7519C175.446 50.4781 175.383 50.2757 175.259 50.1446C175.137 50.0136 174.946 49.9481 174.687 49.9481C174.476 49.9481 174.291 50.0042 174.132 50.1166C173.973 50.2289 173.849 50.3763 173.76 50.5589V53.2654H173.111V49.4671H173.725ZM180.928 53.2654H180.275V48.9371L178.966 49.418V48.8283L180.826 48.1297H180.928V53.2654Z" fill="#8794BA"/>
<path d="M164.548 85.2266H157.212V84.2039L161.088 79.8978C161.662 79.2468 162.056 78.7188 162.272 78.3138C162.492 77.9037 162.602 77.4808 162.602 77.045C162.602 76.4606 162.426 75.9813 162.072 75.6071C161.718 75.2329 161.247 75.0458 160.657 75.0458C159.95 75.0458 159.399 75.2483 159.004 75.6532C158.614 76.0531 158.419 76.6119 158.419 77.3295H156.997C156.997 76.2992 157.327 75.4661 157.989 74.8305C158.655 74.1948 159.545 73.877 160.657 73.877C161.698 73.877 162.52 74.1512 163.125 74.6998C163.73 75.2431 164.033 75.9685 164.033 76.8759C164.033 77.978 163.33 79.2903 161.926 80.8128L158.927 84.0655H164.548V85.2266ZM171.507 80.3053C171.209 80.659 170.853 80.9436 170.438 81.1589C170.028 81.3742 169.577 81.4818 169.085 81.4818C168.439 81.4818 167.875 81.3229 167.393 81.0051C166.916 80.6872 166.547 80.2413 166.286 79.6671C166.024 79.0878 165.894 78.4496 165.894 77.7524C165.894 77.004 166.034 76.3299 166.316 75.7301C166.603 75.1304 167.008 74.6716 167.531 74.3537C168.054 74.0359 168.664 73.877 169.361 73.877C170.469 73.877 171.34 74.2922 171.976 75.1227C172.617 75.948 172.937 77.0758 172.937 78.506V78.9212C172.937 81.0999 172.506 82.6916 171.645 83.6964C170.784 84.696 169.484 85.2086 167.747 85.2343H167.47V84.0347H167.77C168.944 84.0142 169.846 83.7092 170.476 83.1197C171.107 82.525 171.45 81.5869 171.507 80.3053ZM169.315 80.3053C169.792 80.3053 170.23 80.1592 170.63 79.867C171.035 79.5748 171.33 79.2134 171.514 78.7828V78.2138C171.514 77.2808 171.312 76.5221 170.907 75.9377C170.502 75.3534 169.989 75.0612 169.369 75.0612C168.744 75.0612 168.241 75.3021 167.862 75.784C167.483 76.2607 167.293 76.8912 167.293 77.6756C167.293 78.4394 167.475 79.0699 167.839 79.5672C168.208 80.0593 168.7 80.3053 169.315 80.3053ZM174.775 76.1838C174.775 75.5123 174.988 74.9586 175.413 74.5229C175.844 74.0872 176.395 73.8693 177.066 73.8693C177.748 73.8693 178.299 74.0897 178.719 74.5306C179.145 74.9663 179.358 75.5328 179.358 76.2299V76.7759C179.358 77.4526 179.142 78.0062 178.712 78.4368C178.286 78.8623 177.743 79.075 177.082 79.075C176.415 79.075 175.864 78.8623 175.428 78.4368C174.993 78.0062 174.775 77.4346 174.775 76.7221V76.1838ZM175.836 76.7759C175.836 77.1757 175.949 77.5064 176.174 77.7678C176.4 78.0241 176.702 78.1523 177.082 78.1523C177.446 78.1523 177.738 78.0267 177.958 77.7755C178.184 77.5243 178.297 77.1809 178.297 76.7451V76.1838C178.297 75.784 178.186 75.4533 177.966 75.1919C177.745 74.9304 177.446 74.7997 177.066 74.7997C176.687 74.7997 176.387 74.9304 176.167 75.1919C175.946 75.4533 175.836 75.7942 175.836 76.2146V76.7759ZM180.227 82.4814C180.227 81.8099 180.439 81.2588 180.865 80.8282C181.295 80.3925 181.846 80.1746 182.518 80.1746C183.19 80.1746 183.741 80.3899 184.171 80.8205C184.602 81.2511 184.817 81.8227 184.817 82.5353V83.0812C184.817 83.7528 184.602 84.3064 184.171 84.7421C183.746 85.1727 183.2 85.388 182.533 85.388C181.867 85.388 181.316 85.1753 180.88 84.7498C180.444 84.3192 180.227 83.7476 180.227 83.0351V82.4814ZM181.288 83.0812C181.288 83.4862 181.4 83.8194 181.626 84.0808C181.852 84.3372 182.154 84.4653 182.533 84.4653C182.902 84.4653 183.197 84.3397 183.418 84.0885C183.638 83.8322 183.748 83.4862 183.748 83.0505V82.4814C183.748 82.0765 183.636 81.7458 183.41 81.4895C183.19 81.2332 182.892 81.105 182.518 81.105C182.154 81.105 181.857 81.2332 181.626 81.4895C181.4 81.7407 181.288 82.0816 181.288 82.5122V83.0812ZM177.405 84.3807L176.597 83.8732L182.064 75.1227L182.872 75.6302L177.405 84.3807Z" fill="#0088F0"/>
<path d="M156.601 96.0643C156.601 95.6922 156.674 95.3576 156.819 95.0603C156.966 94.7631 157.17 94.5338 157.43 94.3723C157.692 94.2108 157.99 94.1301 158.325 94.1301C158.842 94.1301 159.26 94.3091 159.578 94.6672C159.899 95.0252 160.059 95.5015 160.059 96.0959V96.1415C160.059 96.5113 159.988 96.8436 159.845 97.1385C159.704 97.431 159.502 97.6592 159.237 97.823C158.975 97.9868 158.673 98.0687 158.332 98.0687C157.817 98.0687 157.399 97.8897 157.079 97.5317C156.76 97.1736 156.601 96.6997 156.601 96.1099V96.0643ZM157.254 96.1415C157.254 96.5628 157.351 96.901 157.545 97.156C157.742 97.4111 158.004 97.5387 158.332 97.5387C158.662 97.5387 158.924 97.41 159.118 97.1525C159.312 96.8928 159.409 96.53 159.409 96.0643C159.409 95.6477 159.31 95.3107 159.111 95.0533C158.915 94.7936 158.652 94.6637 158.325 94.6637C158.004 94.6637 157.746 94.7912 157.549 95.0463C157.352 95.3014 157.254 95.6665 157.254 96.1415ZM164.082 96.1415C164.082 96.7196 163.95 97.1853 163.685 97.5387C163.421 97.8921 163.063 98.0687 162.611 98.0687C162.15 98.0687 161.787 97.9225 161.523 97.6299V99.4589H160.873V94.2003H161.467L161.498 94.6215C161.763 94.2939 162.13 94.1301 162.6 94.1301C163.057 94.1301 163.417 94.3021 163.682 94.6461C163.948 94.9901 164.082 95.4687 164.082 96.0819V96.1415ZM163.432 96.0678C163.432 95.6396 163.341 95.3014 163.159 95.0533C162.976 94.8053 162.726 94.6812 162.407 94.6812C162.014 94.6812 161.719 94.8556 161.523 95.2043V97.0191C161.717 97.3655 162.014 97.5387 162.414 97.5387C162.726 97.5387 162.973 97.4158 163.155 97.1701C163.34 96.922 163.432 96.5546 163.432 96.0678ZM165.791 93.2806V94.2003H166.5V94.7023H165.791V97.0578C165.791 97.2099 165.823 97.3245 165.886 97.4018C165.949 97.4767 166.057 97.5141 166.209 97.5141C166.284 97.5141 166.387 97.5001 166.518 97.472V97.9985C166.347 98.0453 166.181 98.0687 166.02 98.0687C165.729 98.0687 165.511 97.981 165.363 97.8055C165.216 97.6299 165.142 97.3807 165.142 97.0578V94.7023H164.45V94.2003H165.142V93.2806H165.791ZM167.968 97.9985H167.318V94.2003H167.968V97.9985ZM167.266 93.1928C167.266 93.0875 167.297 92.9986 167.361 92.926C167.426 92.8535 167.522 92.8172 167.648 92.8172C167.775 92.8172 167.871 92.8535 167.936 92.926C168.002 92.9986 168.035 93.0875 168.035 93.1928C168.035 93.2981 168.002 93.3859 167.936 93.4561C167.871 93.5263 167.775 93.5614 167.648 93.5614C167.522 93.5614 167.426 93.5263 167.361 93.4561C167.297 93.3859 167.266 93.2981 167.266 93.1928ZM168.838 96.0643C168.838 95.6922 168.911 95.3576 169.056 95.0603C169.203 94.7631 169.407 94.5338 169.667 94.3723C169.929 94.2108 170.227 94.1301 170.562 94.1301C171.079 94.1301 171.497 94.3091 171.815 94.6672C172.136 95.0252 172.296 95.5015 172.296 96.0959V96.1415C172.296 96.5113 172.225 96.8436 172.082 97.1385C171.942 97.431 171.739 97.6592 171.475 97.823C171.213 97.9868 170.911 98.0687 170.569 98.0687C170.054 98.0687 169.636 97.8897 169.316 97.5317C168.998 97.1736 168.838 96.6997 168.838 96.1099V96.0643ZM169.491 96.1415C169.491 96.5628 169.588 96.901 169.783 97.156C169.979 97.4111 170.241 97.5387 170.569 97.5387C170.899 97.5387 171.161 97.41 171.355 97.1525C171.55 96.8928 171.647 96.53 171.647 96.0643C171.647 95.6477 171.547 95.3107 171.348 95.0533C171.152 94.7936 170.89 94.6637 170.562 94.6637C170.241 94.6637 169.983 94.7912 169.786 95.0463C169.59 95.3014 169.491 95.6665 169.491 96.1415ZM173.725 94.2003L173.746 94.6777C174.036 94.3126 174.415 94.1301 174.883 94.1301C175.686 94.1301 176.091 94.5829 176.098 95.4886V97.9985H175.448V95.4851C175.446 95.2113 175.383 95.0089 175.259 94.8778C175.137 94.7467 174.946 94.6812 174.687 94.6812C174.476 94.6812 174.291 94.7374 174.132 94.8497C173.973 94.9621 173.849 95.1095 173.76 95.292V97.9985H173.111V94.2003H173.725ZM182.143 97.9985H178.794V97.5317L180.563 95.5658C180.825 95.2686 181.005 95.0276 181.104 94.8427C181.204 94.6555 181.255 94.4624 181.255 94.2635C181.255 93.9967 181.174 93.7779 181.012 93.607C180.851 93.4362 180.636 93.3508 180.366 93.3508C180.044 93.3508 179.792 93.4432 179.612 93.6281C179.434 93.8106 179.345 94.0657 179.345 94.3934H178.696C178.696 93.923 178.846 93.5427 179.148 93.2525C179.453 92.9623 179.859 92.8172 180.366 92.8172C180.842 92.8172 181.217 92.9424 181.493 93.1928C181.769 93.4409 181.908 93.772 181.908 94.1863C181.908 94.6894 181.587 95.2885 180.946 95.9836L179.577 97.4685H182.143V97.9985Z" fill="#8794BA"/>
<path d="M59.0814 5.5321H58.6461V2.64657L57.7732 2.96718V2.57402L59.0135 2.10831H59.0814V5.5321ZM62.4163 3.01399C62.4163 3.18405 62.371 3.33538 62.2805 3.468C62.1916 3.60061 62.0707 3.70436 61.9178 3.77925C62.0957 3.8557 62.2361 3.96725 62.3391 4.11391C62.4436 4.26056 62.4959 4.42672 62.4959 4.61238C62.4959 4.90726 62.396 5.14206 62.1963 5.3168C61.9982 5.49154 61.7368 5.57891 61.4123 5.57891C61.0847 5.57891 60.8218 5.49154 60.6236 5.3168C60.4271 5.1405 60.3288 4.9057 60.3288 4.61238C60.3288 4.42828 60.3787 4.26212 60.4785 4.11391C60.58 3.96569 60.7196 3.85336 60.8975 3.77691C60.7461 3.70202 60.6268 3.59827 60.5394 3.46566C60.452 3.33304 60.4083 3.18249 60.4083 3.01399C60.4083 2.72692 60.5004 2.49913 60.6845 2.33063C60.8686 2.16213 61.1112 2.07788 61.4123 2.07788C61.7119 2.07788 61.9537 2.16213 62.1378 2.33063C62.3235 2.49913 62.4163 2.72692 62.4163 3.01399ZM62.0629 4.60302C62.0629 4.41268 62.0021 4.25744 61.8804 4.13731C61.7602 4.01718 61.6027 3.95711 61.4076 3.95711C61.2126 3.95711 61.0558 4.0164 60.9372 4.13497C60.8202 4.25354 60.7617 4.40956 60.7617 4.60302C60.7617 4.79648 60.8187 4.9486 60.9326 5.05937C61.048 5.17014 61.2079 5.22553 61.4123 5.22553C61.6151 5.22553 61.7743 5.17014 61.8897 5.05937C62.0052 4.94704 62.0629 4.79492 62.0629 4.60302ZM61.4123 2.4336C61.2423 2.4336 61.1042 2.48665 60.9981 2.59274C60.8936 2.69727 60.8413 2.84003 60.8413 3.02101C60.8413 3.19419 60.8928 3.3346 60.9957 3.44225C61.1003 3.54835 61.2391 3.60139 61.4123 3.60139C61.5855 3.60139 61.7236 3.54835 61.8265 3.44225C61.9311 3.3346 61.9833 3.19419 61.9833 3.02101C61.9833 2.84783 61.9295 2.70663 61.8219 2.59742C61.7142 2.48821 61.5777 2.4336 61.4123 2.4336ZM63.9866 4.26134H62.8445V3.90797H63.9866V4.26134ZM66.5983 5.5321H64.3657V5.22085L65.5452 3.91031C65.7199 3.71216 65.8401 3.55147 65.9056 3.42821C65.9727 3.3034 66.0062 3.17469 66.0062 3.04207C66.0062 2.86421 65.9524 2.71834 65.8448 2.60444C65.7371 2.49055 65.5936 2.4336 65.4142 2.4336C65.1988 2.4336 65.0311 2.49523 64.911 2.61848C64.7924 2.74018 64.7331 2.91024 64.7331 3.12866H64.3002C64.3002 2.81507 64.4008 2.56154 64.6021 2.36808C64.8049 2.17462 65.0756 2.07788 65.4142 2.07788C65.7309 2.07788 65.9813 2.16135 66.1654 2.32829C66.3495 2.49367 66.4415 2.71443 66.4415 2.99059C66.4415 3.32602 66.2278 3.72543 65.8003 4.1888L64.8876 5.17873H66.5983V5.5321ZM68.8848 4.38772H69.3575V4.7411H68.8848V5.5321H68.4495V4.7411H66.8979V4.48601L68.4237 2.12469H68.8848V4.38772ZM67.3893 4.38772H68.4495V2.71678L68.398 2.81039L67.3893 4.38772Z" fill="#8794BA"/>
<path d="M116.207 36.6855H113.974V36.3743L115.154 35.0637C115.329 34.8656 115.449 34.7049 115.514 34.5817C115.581 34.4568 115.615 34.3281 115.615 34.1955C115.615 34.0177 115.561 33.8718 115.453 33.7579C115.346 33.644 115.202 33.587 115.023 33.587C114.808 33.587 114.64 33.6487 114.52 33.7719C114.401 33.8936 114.342 34.0637 114.342 34.2821H113.909C113.909 33.9685 114.01 33.715 114.211 33.5215C114.414 33.3281 114.684 33.2313 115.023 33.2313C115.34 33.2313 115.59 33.3148 115.774 33.4817C115.958 33.6471 116.05 33.8679 116.05 34.144C116.05 34.4795 115.837 34.8789 115.409 35.3422L114.496 36.3322H116.207V36.6855ZM116.865 34.9772L117.038 33.2781H118.784V33.6783H117.405L117.302 34.6074C117.469 34.5091 117.659 34.46 117.871 34.46C118.181 34.46 118.428 34.5629 118.611 34.7689C118.793 34.9733 118.884 35.2502 118.884 35.5997C118.884 35.9507 118.789 36.2276 118.599 36.4305C118.41 36.6317 118.146 36.7324 117.805 36.7324C117.504 36.7324 117.259 36.6489 117.068 36.4819C116.878 36.315 116.77 36.0841 116.743 35.7892H117.153C117.179 35.9842 117.248 36.1317 117.361 36.2315C117.473 36.3298 117.621 36.379 117.805 36.379C118.007 36.379 118.164 36.3103 118.278 36.173C118.394 36.0357 118.451 35.8462 118.451 35.6043C118.451 35.3766 118.389 35.194 118.264 35.0567C118.141 34.9179 117.976 34.8484 117.77 34.8484C117.582 34.8484 117.433 34.8898 117.326 34.9725L117.211 35.0661L116.865 34.9772ZM120.303 35.4148H119.16V35.0614H120.303V35.4148ZM121.311 34.7712H121.636C121.841 34.7681 122.002 34.7143 122.119 34.6097C122.236 34.5052 122.294 34.364 122.294 34.1862C122.294 33.7867 122.095 33.587 121.697 33.587C121.51 33.587 121.36 33.6409 121.248 33.7485C121.137 33.8546 121.082 33.9958 121.082 34.1721H120.649C120.649 33.9022 120.747 33.6783 120.944 33.5005C121.142 33.321 121.393 33.2313 121.697 33.2313C122.019 33.2313 122.271 33.3164 122.453 33.4864C122.636 33.6565 122.727 33.8928 122.727 34.1955C122.727 34.3437 122.679 34.4873 122.582 34.6261C122.487 34.765 122.356 34.8687 122.191 34.9374C122.378 34.9967 122.523 35.095 122.624 35.2322C122.727 35.3695 122.779 35.5373 122.779 35.7354C122.779 36.0412 122.679 36.2838 122.479 36.4632C122.279 36.6426 122.019 36.7324 121.7 36.7324C121.38 36.7324 121.119 36.6458 120.918 36.4726C120.718 36.2994 120.618 36.0708 120.618 35.7869H121.054C121.054 35.9663 121.112 36.1098 121.229 36.2175C121.346 36.3251 121.503 36.379 121.7 36.379C121.909 36.379 122.069 36.3244 122.179 36.2152C122.29 36.1059 122.346 35.9491 122.346 35.7448C122.346 35.5466 122.285 35.3945 122.163 35.2884C122.041 35.1823 121.866 35.1277 121.636 35.1246H121.311V34.7712ZM125.201 35.5412H125.673V35.8945H125.201V36.6855H124.765V35.8945H123.214V35.6395L124.74 33.2781H125.201V35.5412ZM123.705 35.5412H124.765V33.8702L124.714 33.9638L123.705 35.5412Z" fill="#8794BA"/>
<path d="M114.604 87.0932H114.929C115.134 87.0901 115.294 87.0363 115.411 86.9318C115.528 86.8272 115.587 86.686 115.587 86.5082C115.587 86.1088 115.388 85.9091 114.99 85.9091C114.803 85.9091 114.653 85.9629 114.541 86.0705C114.43 86.1766 114.375 86.3178 114.375 86.4941H113.942C113.942 86.2242 114.04 86.0003 114.237 85.8225C114.435 85.6431 114.686 85.5533 114.99 85.5533C115.312 85.5533 115.563 85.6384 115.746 85.8084C115.929 85.9785 116.02 86.2149 116.02 86.5175C116.02 86.6658 115.971 86.8093 115.875 86.9481C115.78 87.087 115.649 87.1907 115.484 87.2594C115.671 87.3187 115.815 87.417 115.917 87.5543C116.02 87.6916 116.071 87.8593 116.071 88.0574C116.071 88.3632 115.971 88.6058 115.772 88.7852C115.572 88.9647 115.312 89.0544 114.992 89.0544C114.673 89.0544 114.412 88.9678 114.211 88.7946C114.011 88.6214 113.911 88.3929 113.911 88.1089H114.347C114.347 88.2883 114.405 88.4319 114.522 88.5395C114.639 88.6472 114.796 88.701 114.992 88.701C115.202 88.701 115.361 88.6464 115.472 88.5372C115.583 88.428 115.638 88.2712 115.638 88.0668C115.638 87.8686 115.578 87.7165 115.456 87.6104C115.334 87.5043 115.159 87.4497 114.929 87.4466H114.604V87.0932ZM116.865 87.2992L117.038 85.6002H118.784V86.0003H117.405L117.302 86.9294C117.469 86.8311 117.659 86.782 117.871 86.782C118.181 86.782 118.428 86.885 118.611 87.0909C118.793 87.2953 118.884 87.5722 118.884 87.9217C118.884 88.2727 118.789 88.5497 118.599 88.7525C118.41 88.9537 118.146 89.0544 117.805 89.0544C117.504 89.0544 117.259 88.9709 117.068 88.804C116.878 88.637 116.77 88.4061 116.743 88.1112H117.153C117.179 88.3063 117.248 88.4537 117.361 88.5536C117.473 88.6518 117.621 88.701 117.805 88.701C118.007 88.701 118.164 88.6323 118.278 88.4951C118.394 88.3578 118.451 88.1682 118.451 87.9264C118.451 87.6986 118.389 87.516 118.264 87.3787C118.141 87.2399 117.976 87.1705 117.77 87.1705C117.582 87.1705 117.433 87.2118 117.326 87.2945L117.211 87.3881L116.865 87.2992ZM120.303 87.7368H119.16V87.3834H120.303V87.7368ZM122.509 87.8632H122.982V88.2166H122.509V89.0076H122.074V88.2166H120.522V87.9615L122.048 85.6002H122.509V87.8632ZM121.014 87.8632H122.074V86.1922L122.023 86.2858L121.014 87.8632ZM125.201 87.8632H125.673V88.2166H125.201V89.0076H124.765V88.2166H123.214V87.9615L124.74 85.6002H125.201V87.8632ZM123.705 87.8632H124.765V86.1922L124.714 86.2858L123.705 87.8632Z" fill="#8794BA"/>
<path d="M59.4863 121.812H59.959V122.166H59.4863V122.957H59.051V122.166H57.4994V121.911L59.0252 119.549H59.4863V121.812ZM57.9909 121.812H59.051V120.141L58.9995 120.235L57.9909 121.812ZM60.5488 121.248L60.7219 119.549H62.4678V119.95H61.0894L60.9864 120.879C61.1533 120.78 61.3429 120.731 61.5551 120.731C61.8655 120.731 62.112 120.834 62.2946 121.04C62.4771 121.244 62.5684 121.521 62.5684 121.871C62.5684 122.222 62.4732 122.499 62.2829 122.702C62.0941 122.903 61.8297 123.004 61.4895 123.004C61.1884 123.004 60.9427 122.92 60.7524 122.753C60.562 122.586 60.4536 122.355 60.4271 122.06H60.8366C60.8631 122.255 60.9326 122.403 61.0449 122.503C61.1572 122.601 61.3054 122.65 61.4895 122.65C61.6908 122.65 61.8484 122.582 61.9623 122.444C62.0777 122.307 62.1355 122.117 62.1355 121.876C62.1355 121.648 62.073 121.465 61.9482 121.328C61.825 121.189 61.6604 121.12 61.4544 121.12C61.2657 121.12 61.1174 121.161 61.0098 121.244L60.8951 121.337L60.5488 121.248ZM63.9866 121.686H62.8445V121.333H63.9866V121.686ZM64.5646 121.248L64.7378 119.549H66.4836V119.95H65.1052L65.0023 120.879C65.1692 120.78 65.3588 120.731 65.5709 120.731C65.8814 120.731 66.1279 120.834 66.3105 121.04C66.493 121.244 66.5843 121.521 66.5843 121.871C66.5843 122.222 66.4891 122.499 66.2988 122.702C66.11 122.903 65.8455 123.004 65.5054 123.004C65.2043 123.004 64.9586 122.92 64.7682 122.753C64.5779 122.586 64.4695 122.355 64.4429 122.06H64.8525C64.879 122.255 64.9484 122.403 65.0608 122.503C65.1731 122.601 65.3213 122.65 65.5054 122.65C65.7067 122.65 65.8643 122.582 65.9782 122.444C66.0936 122.307 66.1513 122.117 66.1513 121.876C66.1513 121.648 66.0889 121.465 65.9641 121.328C65.8409 121.189 65.6763 121.12 65.4703 121.12C65.2815 121.12 65.1333 121.161 65.0257 121.244L64.911 121.337L64.5646 121.248ZM68.8848 121.812H69.3575V122.166H68.8848V122.957H68.4495V122.166H66.8979V121.911L68.4237 119.549H68.8848V121.812ZM67.3893 121.812H68.4495V120.141L68.398 120.235L67.3893 121.812Z" fill="#8794BA"/>
<path d="M1.54154 87.2992L1.71472 85.6002H3.46055V86.0003H2.08214L1.97917 86.9294C2.14611 86.8311 2.33567 86.782 2.54785 86.782C2.85833 86.782 3.10483 86.885 3.28737 87.0909C3.46992 87.2953 3.56119 87.5722 3.56119 87.9217C3.56119 88.2727 3.46601 88.5497 3.27567 88.7525C3.08689 88.9537 2.82244 89.0544 2.48233 89.0544C2.18121 89.0544 1.93549 88.9709 1.74515 88.804C1.5548 88.637 1.44637 88.4061 1.41985 88.1112H1.82939C1.85592 88.3063 1.92535 88.4537 2.03768 88.5536C2.15001 88.6518 2.29823 88.701 2.48233 88.701C2.68359 88.701 2.84117 88.6323 2.95506 88.4951C3.07051 88.3578 3.12824 88.1682 3.12824 87.9264C3.12824 87.6986 3.06583 87.516 2.94102 87.3787C2.81776 87.2399 2.65317 87.1705 2.44722 87.1705C2.25844 87.1705 2.11023 87.2118 2.00257 87.2945L1.8879 87.3881L1.54154 87.2992ZM4.23284 87.2992L4.40602 85.6002H6.15185V86.0003H4.77344L4.67047 86.9294C4.83741 86.8311 5.02697 86.782 5.23915 86.782C5.54962 86.782 5.79613 86.885 5.97867 87.0909C6.16121 87.2953 6.25248 87.5722 6.25248 87.9217C6.25248 88.2727 6.15731 88.5497 5.96697 88.7525C5.77819 88.9537 5.51374 89.0544 5.17362 89.0544C4.87251 89.0544 4.62678 88.9709 4.43644 88.804C4.2461 88.637 4.13767 88.4061 4.11115 88.1112H4.52069C4.54721 88.3063 4.61664 88.4537 4.72897 88.5536C4.84131 88.6518 4.98952 88.701 5.17362 88.701C5.37488 88.701 5.53246 88.6323 5.64635 88.4951C5.76181 88.3578 5.81953 88.1682 5.81953 87.9264C5.81953 87.6986 5.75713 87.516 5.63231 87.3787C5.50906 87.2399 5.34446 87.1705 5.13852 87.1705C4.94974 87.1705 4.80152 87.2118 4.69387 87.2945L4.5792 87.3881L4.23284 87.2992ZM7.67068 87.7368H6.52863V87.3834H7.67068V87.7368ZM9.74882 85.5978V85.9652H9.66926C9.33226 85.9715 9.06391 86.0713 8.86421 86.2648C8.66451 86.4582 8.54905 86.7305 8.51785 87.0815C8.69727 86.8756 8.94222 86.7726 9.25269 86.7726C9.54912 86.7726 9.78549 86.8772 9.96179 87.0862C10.1396 87.2953 10.2286 87.5652 10.2286 87.8959C10.2286 88.247 10.1326 88.5278 9.94073 88.7384C9.75038 88.9491 9.49452 89.0544 9.17312 89.0544C8.84705 89.0544 8.5826 88.9296 8.37977 88.6799C8.17695 88.4287 8.07554 88.1058 8.07554 87.7111V87.5449C8.07554 86.9177 8.20894 86.4387 8.47572 86.108C8.74407 85.7757 9.1427 85.6056 9.6716 85.5978H9.74882ZM9.18014 87.133C9.03193 87.133 8.89541 87.1775 8.7706 87.2664C8.64578 87.3553 8.55919 87.4669 8.51083 87.6011V87.7602C8.51083 88.041 8.57402 88.2673 8.70039 88.4389C8.82676 88.6105 8.98434 88.6963 9.17312 88.6963C9.36814 88.6963 9.52104 88.6245 9.63181 88.481C9.74414 88.3375 9.80031 88.1495 9.80031 87.917C9.80031 87.683 9.74336 87.4942 9.62947 87.3507C9.51714 87.2056 9.36736 87.133 9.18014 87.133ZM12.5688 87.8632H13.0416V88.2166H12.5688V89.0076H12.1335V88.2166H10.582V87.9615L12.1078 85.6002H12.5688V87.8632ZM11.0734 87.8632H12.1335V86.1922L12.0821 86.2858L11.0734 87.8632Z" fill="#8794BA"/>
<path d="M5.0356 33.2758V33.6432H4.95603C4.61903 33.6495 4.35068 33.7493 4.15098 33.9428C3.95128 34.1362 3.83583 34.4085 3.80462 34.7595C3.98404 34.5536 4.22899 34.4506 4.53946 34.4506C4.8359 34.4506 5.07226 34.5551 5.24856 34.7642C5.42642 34.9733 5.51535 35.2432 5.51535 35.5739C5.51535 35.925 5.4194 36.2058 5.2275 36.4164C5.03716 36.627 4.78129 36.7324 4.45989 36.7324C4.13382 36.7324 3.86937 36.6075 3.66655 36.3579C3.46373 36.1067 3.36231 35.7838 3.36231 35.389V35.2229C3.36231 34.5957 3.49571 34.1167 3.7625 33.786C4.03085 33.4537 4.42947 33.2836 4.95837 33.2758H5.0356ZM4.46692 34.811C4.3187 34.811 4.18218 34.8555 4.05737 34.9444C3.93256 35.0333 3.84597 35.1449 3.7976 35.2791V35.4382C3.7976 35.719 3.86079 35.9452 3.98716 36.1169C4.11354 36.2885 4.27111 36.3743 4.45989 36.3743C4.65492 36.3743 4.80781 36.3025 4.91859 36.159C5.03092 36.0155 5.08708 35.8275 5.08708 35.595C5.08708 35.361 5.03014 35.1722 4.91624 35.0286C4.80391 34.8835 4.65414 34.811 4.46692 34.811ZM6.22679 34.9772L6.39997 33.2781H8.1458V33.6783H6.76739L6.66442 34.6074C6.83136 34.5091 7.02092 34.46 7.2331 34.46C7.54357 34.46 7.79008 34.5629 7.97262 34.7689C8.15516 34.9733 8.24643 35.2502 8.24643 35.5997C8.24643 35.9507 8.15126 36.2276 7.96092 36.4305C7.77214 36.6317 7.50769 36.7324 7.16757 36.7324C6.86646 36.7324 6.62073 36.6489 6.43039 36.4819C6.24005 36.315 6.13162 36.0841 6.1051 35.7892H6.51464C6.54116 35.9842 6.61059 36.1317 6.72292 36.2315C6.83526 36.3298 6.98347 36.379 7.16757 36.379C7.36883 36.379 7.52641 36.3103 7.6403 36.173C7.75576 36.0357 7.81348 35.8462 7.81348 35.6043C7.81348 35.3766 7.75108 35.194 7.62626 35.0567C7.50301 34.9179 7.33841 34.8484 7.13247 34.8484C6.94369 34.8484 6.79547 34.8898 6.68782 34.9725L6.57315 35.0661L6.22679 34.9772ZM10.004 34.8578H10.9541V35.2674H10.004V36.3439H9.56868V35.2674H8.61853V34.8578H9.56868V33.8632H10.004V34.8578Z" fill="#8794BA"/>
</svg>
